<?xml version="1.0" encoding="UTF-8" standalone="no"?>
<svg
   xmlns:dc="http://purl.org/dc/elements/1.1/"
   xmlns:cc="http://creativecommons.org/ns#"
   xmlns:rdf="http://www.w3.org/1999/02/22-rdf-syntax-ns#"
   xmlns:svg="http://www.w3.org/2000/svg"
   xmlns="http://www.w3.org/2000/svg"
   xmlns:sodipodi="http://sodipodi.sourceforge.net/DTD/sodipodi-0.dtd"
   xmlns:inkscape="http://www.inkscape.org/namespaces/inkscape"
   version="1.1"
   id="svg10"
   width="320"
   height="266.56"
   viewBox="0 0 320 266.56"
   sodipodi:docname="con_ga.svg"
   inkscape:version="1.0.2-2 (e86c870879, 2021-01-15)">
  <metadata
     id="metadata16">
    <rdf:RDF>
      <cc:Work
         rdf:about="">
        <dc:format>image/svg+xml</dc:format>
        <dc:type
           rdf:resource="http://purl.org/dc/dcmitype/StillImage" />
        <dc:title></dc:title>
      </cc:Work>
    </rdf:RDF>
  </metadata>
  <defs
     id="defs14">
    <inkscape:perspective
       sodipodi:type="inkscape:persp3d"
       inkscape:vp_x="0 : 133.28 : 1"
       inkscape:vp_y="0 : 1000 : 0"
       inkscape:vp_z="320 : 133.28 : 1"
       inkscape:persp3d-origin="160 : 88.853333 : 1"
       id="perspective36" />
  </defs>
  <sodipodi:namedview
     pagecolor="#ffffff"
     bordercolor="#666666"
     borderopacity="1"
     objecttolerance="10"
     gridtolerance="10"
     guidetolerance="10"
     inkscape:pageopacity="0"
     inkscape:pageshadow="2"
     inkscape:window-width="1360"
     inkscape:window-height="705"
     id="namedview12"
     showgrid="false"
     inkscape:zoom="2.8284271"
     inkscape:cx="151.63845"
     inkscape:cy="135.29837"
     inkscape:window-x="-8"
     inkscape:window-y="-8"
     inkscape:window-maximized="1"
     inkscape:current-layer="g18" />
  <g
     inkscape:groupmode="layer"
     inkscape:label="Image"
     id="g18">
    <path
       style="fill:#00d4aa;stroke:#000000;stroke-width:0.98643px;stroke-linecap:butt;stroke-linejoin:miter;stroke-opacity:1"
       d="m 58.517726,164.56216 -0.532883,-13.69725 2.131534,-12.71888 4.263068,-17.12156 5.328835,-18.09994 7.460369,-18.58913 8.526137,-12.229695 2.131534,-1.956755 5.144398,-3.124106 17.241812,-4.049135 3.90952,0 3.54575,-0.653754 85.79424,-0.489185 v 0 l 13.32209,-0.489195 9.59191,3.913502 5.32883,4.402687 v 0 l 9.05902,9.783763 3.73018,8.805375 6.92749,20.056688 6.92748,29.35126 3.73019,20.54587 v 7.33781 l -1.59865,4.89187 -3.1973,4.40269 -5.32884,4.40268 -7.46037,2.93514 -10.12478,-0.97838 -6.92749,-4.40269 -8.52614,-8.80538 -3.73018,-13.20806 -1.59865,-7.33781 -4.79596,-7.827 -7.99325,-5.38106 -78.86675,-0.48919 -5.32884,1.95675 -4.79595,4.89188 -4.26307,7.33781 -4.26307,12.71887 -4.795951,11.7405 -4.795951,4.89188 -10.124787,4.40269 -5.861719,0.48919 -6.927485,-2.44594 -4.795952,-2.44594 -4.263068,-3.9135 -1.59865,-2.93513 z"
       id="path22"
       sodipodi:nodetypes="ccccccccccccccccccccccccccccccccccccccccccccccccc" />
    <path
       style="fill:#ffff00;stroke:#000000;stroke-width:0.98643px;stroke-linecap:butt;stroke-linejoin:miter;stroke-opacity:1"
       d="m 99.108335,102.46221 -0.188396,4.4968 0.942011,2.07545 2.07243,1.72953 2.26083,0.34591 2.82604,-0.69181 1.88403,-1.03773 0.94201,-1.55658 0.37681,-1.9025 v -1.90249 l 0.1884,-1.90249 3.95646,-0.17296 3.76806,-0.3459 1.50722,-1.03773 1.13042,-1.210678 0.56521,-1.902492 -0.37682,-1.816013 -0.6594,-1.470108 -1.22462,-0.951246 -1.36592,-0.389144 -1.17751,-0.216196 h -1.36593 -1.31881 l -0.89492,0.08648 -2.16664,0.129718 -0.047,-1.037724 v -1.210682 l -0.047,-1.902492 -0.0942,-1.037724 -0.23551,-0.778289 -0.3297,-0.518862 -1.08331,-1.383639 -1.22462,-0.562092 -1.36592,-0.302675 -0.89492,-0.08648 -0.75361,-0.04319 -0.84781,0.172957 -1.22461,0.389144 -1.13042,0.778289 -0.75362,0.778298 -0.5181,0.864767 -0.282604,0.64858 -0.423914,1.297151 -0.188396,1.383629 -0.02358,0.562102 0.04705,0.799913 0.02358,1.275536 v 0.08648 l -5.65209,0.04319 -0.61231,0.04319 -0.588755,0.151333 -0.494561,0.194582 -0.981865,0.56282 -0.799325,0.489185 -0.599495,0.611484 -0.532883,1.284118 -0.133221,1.406416 0.333052,0.978371 1.132378,1.712163 1.332209,0.85607 6.927488,0.18345 0.333047,0.0611 z"
       id="path26" />
    <ellipse
       style="fill:#000000;stroke-width:0.98643"
       id="path28"
       cx="207.41258"
       cy="105.40623"
       rx="6.3059516"
       ry="5.7888689" />
    <ellipse
       style="fill:#000000;stroke-width:0.98643"
       id="circle30"
       cx="219.06053"
       cy="94.713409"
       rx="6.3059516"
       ry="5.7888689" />
    <ellipse
       style="fill:#000000;stroke-width:0.98643"
       id="circle32"
       cx="192.12465"
       cy="94.045105"
       rx="6.3059516"
       ry="5.7888689" />
    <ellipse
       style="fill:#000000;stroke-width:0.98643"
       id="circle34"
       cx="205.95659"
       cy="82.683975"
       rx="6.3059516"
       ry="5.7888689" />
  </g>
</svg>
