<?xml version="1.0" encoding="UTF-8" standalone="no"?>
<svg
   xmlns:dc="http://purl.org/dc/elements/1.1/"
   xmlns:cc="http://creativecommons.org/ns#"
   xmlns:rdf="http://www.w3.org/1999/02/22-rdf-syntax-ns#"
   xmlns:svg="http://www.w3.org/2000/svg"
   xmlns="http://www.w3.org/2000/svg"
   xmlns:sodipodi="http://sodipodi.sourceforge.net/DTD/sodipodi-0.dtd"
   xmlns:inkscape="http://www.inkscape.org/namespaces/inkscape"
   width="210mm"
   height="297mm"
   viewBox="0 0 210 297"
   version="1.1"
   id="svg141"
   inkscape:version="1.0.2-2 (e86c870879, 2021-01-15)"
   sodipodi:docname="log.svg">
  <defs
     id="defs135">
    <clipPath
       clipPathUnits="userSpaceOnUse"
       id="clipPath1131">
      <path
         id="path1133"
         style="fill:#ff0000;fill-opacity:1;fill-rule:nonzero;stroke:none;stroke-width:0.264583"
         d="M 39.544874,78.098592 V 222.77038 H 147.17551 v -30.75833 h -1.73736 -5.11442 -8.78809 c -5.89497,0 -7.14294,-4.68869 -3.75068,-6.68021 0.23714,-1.03914 0.97541,-2.13499 2.26291,-3.05356 -0.85145,-1.62654 -0.16915,-4.11253 2.94504,-5.98103 0.48406,-0.29043 0.96636,-0.58456 1.45159,-0.87334 0.43388,-0.73801 1.0907,-1.46925 2.01694,-2.14043 0.63137,-0.45751 1.25555,-0.92848 1.68516,-1.12397 0.0945,-0.23941 0.19192,-0.47773 0.29611,-0.71313 0.17301,-0.39087 0.59405,-0.7496 1.03766,-1.09296 -0.4364,-0.95987 -0.42109,-1.2575 -0.38499,-3.04942 v -2.56367 -3.11144 c 2e-5,-0.74728 2.5e-4,-1.49496 0,-2.24224 -1.7e-4,-0.89738 1.9e-4,-1.79445 5.3e-4,-2.69182 -0.002,-1.79893 -0.009,-3.5982 0.005,-5.39709 0.007,-2.34565 0.006,-4.69169 -0.0398,-7.03575 0.15179,-1.72892 0.46517,-3.31129 -0.23099,-5.00589 -0.56672,-1.37947 -0.7171,-2.55956 -0.57723,-3.51142 -2.21848,-1.01501 -3.07589,-2.73536 -2.76159,-4.21318 -0.56343,-0.0158 -1.12645,-0.0153 -1.68775,0.004 -6.56261,0.23572 -7.36797,-5.67293 -2.41122,-7.20214 -0.39444,-1.11752 -0.10898,-2.37571 0.85472,-3.33675 -3.76778,-1.88177 -2.61963,-6.84816 3.44631,-6.84816 h 3.18481 c -0.56929,-2.1049 1.26497,-4.53564 5.50871,-4.53564 H 147.175 V 78.098592 Z M 147.17551,129.91817 c -0.002,0.0576 -0.003,0.11505 -0.004,0.17518 10e-4,2.5e-4 0.002,1.8e-4 0.004,5.3e-4 z" />
    </clipPath>
    <clipPath
       clipPathUnits="userSpaceOnUse"
       id="clipPath1233">
      <path
         id="path1235"
         style="fill:#ff0000;fill-opacity:1;fill-rule:nonzero;stroke:none;stroke-width:0.264583"
         d="m 175.26366,110.40559 2.15384,2.51389 2.34415,2.73601 1.42054,1.65801 1.4851,1.73335 1.47635,1.72315 1.47535,1.72197 1.67237,1.95194 c 1.74102,2.03205 2.12086,3.96298 1.67378,5.3498 1.24912,0.14154 2.68179,0.89589 4.04786,2.49032 l 2.8895,3.37252 1.43701,1.67723 1.13341,1.32288 c 0.93247,0.37422 1.91656,1.07496 2.86819,2.18562 l 0.20005,0.2335 1.32943,1.55166 3.99634,4.66439 c 0.19354,0.22594 0.36454,0.44988 0.52533,0.67273 l 22.84557,-19.57355 -32.15804,-37.533747 z m -6.15966,12.40088 c -0.006,10e-4 0.0579,0.18943 0.15561,0.43421 -0.0903,-0.2668 -0.15109,-0.43535 -0.15561,-0.43421 z m 4.53675,6.44362 3.72669,4.34967 c -0.19146,-0.58848 -0.3298,-1.0418 -0.43365,-1.40522 -0.27691,-0.33337 -0.54412,-0.67411 -0.80036,-1.02232 l -0.54368,-0.63455 -0.3648,-0.42579 c -0.55308,-0.24616 -1.09966,-0.5119 -1.5842,-0.86179 z" />
    </clipPath>
  </defs>
  <sodipodi:namedview
     id="base"
     pagecolor="#ffffff"
     bordercolor="#666666"
     borderopacity="1.0"
     inkscape:pageopacity="0.0"
     inkscape:pageshadow="2"
     inkscape:zoom="0.35"
     inkscape:cx="337.14286"
     inkscape:cy="560"
     inkscape:document-units="mm"
     inkscape:current-layer="layer1"
     inkscape:document-rotation="0"
     showgrid="false"
     inkscape:window-width="1360"
     inkscape:window-height="705"
     inkscape:window-x="-8"
     inkscape:window-y="-8"
     inkscape:window-maximized="1" />
  <metadata
     id="metadata138">
    <rdf:RDF>
      <cc:Work
         rdf:about="">
        <dc:format>image/svg+xml</dc:format>
        <dc:type
           rdf:resource="http://purl.org/dc/dcmitype/StillImage" />
        <dc:title></dc:title>
      </cc:Work>
    </rdf:RDF>
  </metadata>
  <g
     inkscape:label="Layer 1"
     inkscape:groupmode="layer"
     id="layer1">
    <g
       id="g1241">
      <g
         id="g1141"
         style="fill:none;stroke:#000000;stroke-opacity:1">
        <rect
           style="fill:none;stroke:#000000;stroke-width:4.065;stroke-miterlimit:4;stroke-dasharray:none;stroke-opacity:1;image-rendering:auto"
           id="rect143"
           width="103.56547"
           height="140.60715"
           x="41.577381"
           y="80.130951"
           ry="17.389879"
           clip-path="url(#clipPath1131)" />
        <rect
           style="fill:none;stroke:#000000;stroke-width:3.91591;stroke-miterlimit:4;stroke-dasharray:none;stroke-opacity:1"
           id="rect1135"
           width="65.695976"
           height="3.648627"
           x="100.61356"
           y="143.00613"
           ry="1.8243135" />
      </g>
      <path
         sodipodi:type="star"
         style="fill:none;stroke:#000000;stroke-width:4.06501;stroke-miterlimit:4;stroke-dasharray:none;stroke-opacity:1"
         id="path1137"
         sodipodi:sides="3"
         sodipodi:cx="192.76785"
         sodipodi:cy="128.51192"
         sodipodi:r1="24.48399"
         sodipodi:r2="12.241994"
         sodipodi:arg1="1.4157996"
         sodipodi:arg2="2.4629971"
         inkscape:flatsided="false"
         inkscape:rounded="0"
         inkscape:randomized="0"
         inkscape:transform-center-x="-8.6035883"
         inkscape:transform-center-y="-0.75757764"
         transform="matrix(1.126044,1.3504419,-0.96476819,1.5761889,63.908585,-316.75971)"
         d="m 196.54761,152.70239 -13.3096,-16.50617 -13.30961,-16.50617 20.94957,-3.27337 20.94957,-3.27337 -7.63996,19.77954 z"
         clip-path="url(#clipPath1233)" />
    </g>
  </g>
</svg>
